<svg viewBox="0 0 680 1208" width="680" height="1208" xmlns="http://www.w3.org/2000/svg" role="img">
<title>IDIOT · Collatz 榜</title>
<style>
text{font-family:'Microsoft YaHei','PingFang SC','Noto Sans CJK SC','Segoe UI',sans-serif}
.th{fill:#1A1A1A}.t{fill:#2C2C2A}.ts{fill:#6B6B6B}
.win{fill:#27500A}.lose{fill:#791F1F}
.c-green rect{fill:#EAF3DE}.c-green text{fill:#27500A}
.c-teal rect{fill:#E1F5EE}.c-teal text{fill:#085041}
.c-amber rect{fill:#FAEEDA}.c-amber text{fill:#633806}
.c-coral rect{fill:#FAECE7}.c-coral text{fill:#712B13}
.c-red rect{fill:#FCEBEB}.c-red text{fill:#791F1F}
.hl{fill:#EEEDFE}.divider{stroke:#111;stroke-opacity:0.18}
</style>
<rect width="680" height="1208" fill="#ffffff"/>
<text x="24" y="40" class="th" style="font-size:23px">IDIOT · Collatz 榜</text>
<text x="24" y="66" class="ts" style="font-size:13px">一道一句话能秒的题，测大模型敢不敢不思考 · 分越高越好</text>
<text x="20" y="104" class="ts" text-anchor="start" style="font-size:12px">#</text>
<text x="46" y="104" class="ts" text-anchor="start" style="font-size:12px">模型</text>
<text x="300" y="104" class="ts" text-anchor="middle" style="font-size:12px">入口</text>
<text x="340" y="104" class="ts" text-anchor="middle" style="font-size:12px">均值</text>
<text x="392" y="104" class="ts" text-anchor="middle" style="font-size:12px">最差</text>
<text x="430" y="104" class="ts" text-anchor="start" style="font-size:12px">一句话</text>
<line x1="20" y1="112" x2="664" y2="112" class="divider"/>
<text x="34" y="133.0" class="ts" text-anchor="end" style="font-size:12px">1</text>
<text x="46" y="133.0" class="t" style="font-size:13px;font-weight:400">Qwen3.7 Max</text>
<text x="300" y="133.0" class="ts" text-anchor="middle" style="font-size:11px">API</text>
<g class="c-green"><rect x="320" y="119.0" width="42" height="20" rx="5"/><text x="341" y="133.0" text-anchor="middle" style="font-size:12px">1.00</text></g>
<text x="392" y="133.0" class="ts" text-anchor="middle" style="font-size:12px">1.00</text>
<text x="430" y="133.0" class="t" style="font-size:12px">零思考 · 8/8 稳</text>
<text x="34" y="163.0" class="ts" text-anchor="end" style="font-size:12px">2</text>
<text x="46" y="163.0" class="t" style="font-size:13px;font-weight:400">Grok 4.3</text>
<text x="300" y="163.0" class="ts" text-anchor="middle" style="font-size:11px">API</text>
<g class="c-green"><rect x="320" y="149.0" width="42" height="20" rx="5"/><text x="341" y="163.0" text-anchor="middle" style="font-size:12px">1.00</text></g>
<text x="392" y="163.0" class="ts" text-anchor="middle" style="font-size:12px">1.00</text>
<text x="430" y="163.0" class="t" style="font-size:12px">2.1 秒秒答</text>
<text x="34" y="193.0" class="ts" text-anchor="end" style="font-size:12px">3</text>
<text x="46" y="193.0" class="t" style="font-size:13px;font-weight:400">Fable-5</text>
<text x="300" y="193.0" class="ts" text-anchor="middle" style="font-size:11px">API</text>
<g class="c-green"><rect x="320" y="179.0" width="42" height="20" rx="5"/><text x="341" y="193.0" text-anchor="middle" style="font-size:12px">0.92</text></g>
<text x="392" y="193.0" class="ts" text-anchor="middle" style="font-size:12px">0.92</text>
<text x="430" y="193.0" class="t" style="font-size:12px">纯结构 · 几乎没想</text>
<text x="34" y="223.0" class="ts" text-anchor="end" style="font-size:12px">4</text>
<text x="46" y="223.0" class="t" style="font-size:13px;font-weight:400">GPT-5.5</text>
<text x="300" y="223.0" class="ts" text-anchor="middle" style="font-size:11px">API</text>
<g class="c-green"><rect x="320" y="209.0" width="42" height="20" rx="5"/><text x="341" y="223.0" text-anchor="middle" style="font-size:12px">0.92</text></g>
<text x="392" y="223.0" class="ts" text-anchor="middle" style="font-size:12px">0.25</text>
<text x="430" y="223.0" class="t" style="font-size:12px">强,偶发 1 次 920</text>
<text x="34" y="253.0" class="ts" text-anchor="end" style="font-size:12px">5</text>
<text x="46" y="253.0" class="t" style="font-size:13px;font-weight:400">GPT-5.3 Codex</text>
<text x="300" y="253.0" class="ts" text-anchor="middle" style="font-size:11px">API</text>
<g class="c-green"><rect x="320" y="239.0" width="42" height="20" rx="5"/><text x="341" y="253.0" text-anchor="middle" style="font-size:12px">0.91</text></g>
<text x="392" y="253.0" class="ts" text-anchor="middle" style="font-size:12px">0.25</text>
<text x="430" y="253.0" class="t" style="font-size:12px">强,1 次 626</text>
<text x="34" y="283.0" class="ts" text-anchor="end" style="font-size:12px">6</text>
<text x="46" y="283.0" class="t" style="font-size:13px;font-weight:400">Opus 4.7</text>
<text x="300" y="283.0" class="ts" text-anchor="middle" style="font-size:11px">API</text>
<g class="c-green"><rect x="320" y="269.0" width="42" height="20" rx="5"/><text x="341" y="283.0" text-anchor="middle" style="font-size:12px">0.90</text></g>
<text x="392" y="283.0" class="ts" text-anchor="middle" style="font-size:12px">0.90</text>
<text x="430" y="283.0" class="t" style="font-size:12px">对,但先说你错</text>
<text x="34" y="313.0" class="ts" text-anchor="end" style="font-size:12px">7</text>
<text x="46" y="313.0" class="t" style="font-size:13px;font-weight:400">DeepSeek V4 Pro</text>
<text x="300" y="313.0" class="ts" text-anchor="middle" style="font-size:11px">API</text>
<g class="c-green"><rect x="320" y="299.0" width="42" height="20" rx="5"/><text x="341" y="313.0" text-anchor="middle" style="font-size:12px">0.85</text></g>
<text x="392" y="313.0" class="ts" text-anchor="middle" style="font-size:12px">0.85</text>
<text x="430" y="313.0" class="t" style="font-size:12px">抠 16 边界 → 995</text>
<text x="34" y="343.0" class="ts" text-anchor="end" style="font-size:12px">8</text>
<text x="46" y="343.0" class="t" style="font-size:13px;font-weight:400">Gemini(web)</text>
<text x="300" y="343.0" class="ts" text-anchor="middle" style="font-size:11px">网页</text>
<g class="c-teal"><rect x="320" y="329.0" width="42" height="20" rx="5"/><text x="341" y="343.0" text-anchor="middle" style="font-size:12px">0.84</text></g>
<text x="392" y="343.0" class="ts" text-anchor="middle" style="font-size:12px">0.84</text>
<text x="430" y="343.0" class="t" style="font-size:12px">只想了几秒</text>
<text x="34" y="373.0" class="ts" text-anchor="end" style="font-size:12px">9</text>
<text x="46" y="373.0" class="t" style="font-size:13px;font-weight:400">Sonnet 4.6</text>
<text x="300" y="373.0" class="ts" text-anchor="middle" style="font-size:11px">API</text>
<g class="c-teal"><rect x="320" y="359.0" width="42" height="20" rx="5"/><text x="341" y="373.0" text-anchor="middle" style="font-size:12px">0.80</text></g>
<text x="392" y="373.0" class="ts" text-anchor="middle" style="font-size:12px">0.80</text>
<text x="430" y="373.0" class="t" style="font-size:12px">先说你错 + 试数</text>
<text x="34" y="403.0" class="ts" text-anchor="end" style="font-size:12px">10</text>
<text x="46" y="403.0" class="t" style="font-size:13px;font-weight:400">豆包 Seed 1.6</text>
<text x="300" y="403.0" class="ts" text-anchor="middle" style="font-size:11px">API</text>
<g class="c-teal"><rect x="320" y="389.0" width="42" height="20" rx="5"/><text x="341" y="403.0" text-anchor="middle" style="font-size:12px">0.80</text></g>
<text x="392" y="403.0" class="ts" text-anchor="middle" style="font-size:12px">0.80</text>
<text x="430" y="403.0" class="t" style="font-size:12px">先说你错 + 试数</text>
<text x="34" y="433.0" class="ts" text-anchor="end" style="font-size:12px">11</text>
<text x="46" y="433.0" class="t" style="font-size:13px;font-weight:400">MiMo v2.5 Pro</text>
<text x="300" y="433.0" class="ts" text-anchor="middle" style="font-size:11px">API</text>
<g class="c-teal"><rect x="320" y="419.0" width="42" height="20" rx="5"/><text x="341" y="433.0" text-anchor="middle" style="font-size:12px">0.80</text></g>
<text x="392" y="433.0" class="ts" text-anchor="middle" style="font-size:12px">0.80</text>
<text x="430" y="433.0" class="t" style="font-size:12px">先否定;开推理翻车</text>
<text x="34" y="463.0" class="ts" text-anchor="end" style="font-size:12px">12</text>
<text x="46" y="463.0" class="t" style="font-size:13px;font-weight:400">Opus(web)</text>
<text x="300" y="463.0" class="ts" text-anchor="middle" style="font-size:11px">网页</text>
<g class="c-teal"><rect x="320" y="449.0" width="42" height="20" rx="5"/><text x="341" y="463.0" text-anchor="middle" style="font-size:12px">0.80</text></g>
<text x="392" y="463.0" class="ts" text-anchor="middle" style="font-size:12px">0.80</text>
<text x="430" y="463.0" class="t" style="font-size:12px">先说你判断错了</text>
<text x="34" y="493.0" class="ts" text-anchor="end" style="font-size:12px">13</text>
<text x="46" y="493.0" class="t" style="font-size:13px;font-weight:400">Sonnet(web)</text>
<text x="300" y="493.0" class="ts" text-anchor="middle" style="font-size:11px">网页</text>
<g class="c-teal"><rect x="320" y="479.0" width="42" height="20" rx="5"/><text x="341" y="493.0" text-anchor="middle" style="font-size:12px">0.80</text></g>
<text x="392" y="493.0" class="ts" text-anchor="middle" style="font-size:12px">0.80</text>
<text x="430" y="493.0" class="t" style="font-size:12px">≈opus,先说你错</text>
<text x="34" y="523.0" class="ts" text-anchor="end" style="font-size:12px">14</text>
<text x="46" y="523.0" class="t" style="font-size:13px;font-weight:400">GLM-5.2</text>
<text x="300" y="523.0" class="ts" text-anchor="middle" style="font-size:11px">API</text>
<g class="c-teal"><rect x="320" y="509.0" width="42" height="20" rx="5"/><text x="341" y="523.0" text-anchor="middle" style="font-size:12px">0.79</text></g>
<text x="392" y="523.0" class="ts" text-anchor="middle" style="font-size:12px">0.25</text>
<text x="430" y="523.0" class="t" style="font-size:12px">off 不稳 5/8</text>
<text x="34" y="553.0" class="ts" text-anchor="end" style="font-size:12px">15</text>
<text x="46" y="553.0" class="t" style="font-size:13px;font-weight:400">DeepSeek V4 Flash</text>
<text x="300" y="553.0" class="ts" text-anchor="middle" style="font-size:11px">API</text>
<g class="c-teal"><rect x="320" y="539.0" width="42" height="20" rx="5"/><text x="341" y="553.0" text-anchor="middle" style="font-size:12px">0.75</text></g>
<text x="392" y="553.0" class="ts" text-anchor="middle" style="font-size:12px">0.75</text>
<text x="430" y="553.0" class="t" style="font-size:12px">对,却试了 7 个数</text>
<text x="34" y="583.0" class="ts" text-anchor="end" style="font-size:12px">16</text>
<text x="46" y="583.0" class="t" style="font-size:13px;font-weight:400">豆包 Seed 1.6 Flash</text>
<text x="300" y="583.0" class="ts" text-anchor="middle" style="font-size:11px">API</text>
<g class="c-teal"><rect x="320" y="569.0" width="42" height="20" rx="5"/><text x="341" y="583.0" text-anchor="middle" style="font-size:12px">0.65</text></g>
<text x="392" y="583.0" class="ts" text-anchor="middle" style="font-size:12px">0.65</text>
<text x="430" y="583.0" class="t" style="font-size:12px">先否定 + 成片枚举</text>
<text x="34" y="613.0" class="ts" text-anchor="end" style="font-size:12px">17</text>
<text x="46" y="613.0" class="t" style="font-size:13px;font-weight:400">Kimi K2.6</text>
<text x="300" y="613.0" class="ts" text-anchor="middle" style="font-size:11px">API</text>
<g class="c-teal"><rect x="320" y="599.0" width="42" height="20" rx="5"/><text x="341" y="613.0" text-anchor="middle" style="font-size:12px">0.65</text></g>
<text x="392" y="613.0" class="ts" text-anchor="middle" style="font-size:12px">0.65</text>
<text x="430" y="613.0" class="t" style="font-size:12px">先否定 + 成片试数</text>
<text x="34" y="643.0" class="ts" text-anchor="end" style="font-size:12px">18</text>
<text x="46" y="643.0" class="t" style="font-size:13px;font-weight:400">Kimi(web)</text>
<text x="300" y="643.0" class="ts" text-anchor="middle" style="font-size:11px">网页</text>
<g class="c-teal"><rect x="320" y="629.0" width="42" height="20" rx="5"/><text x="341" y="643.0" text-anchor="middle" style="font-size:12px">0.65</text></g>
<text x="392" y="643.0" class="ts" text-anchor="middle" style="font-size:12px">0.65</text>
<text x="430" y="643.0" class="t" style="font-size:12px">先否定后自纠</text>
<text x="34" y="673.0" class="ts" text-anchor="end" style="font-size:12px">19</text>
<text x="46" y="673.0" class="t" style="font-size:13px;font-weight:400">Gemini 3.1 Pro</text>
<text x="300" y="673.0" class="ts" text-anchor="middle" style="font-size:11px">API</text>
<g class="c-teal"><rect x="320" y="659.0" width="42" height="20" rx="5"/><text x="341" y="673.0" text-anchor="middle" style="font-size:12px">0.64</text></g>
<text x="392" y="673.0" class="ts" text-anchor="middle" style="font-size:12px">0.64</text>
<text x="430" y="673.0" class="t" style="font-size:12px">关不掉推理</text>
<text x="34" y="703.0" class="ts" text-anchor="end" style="font-size:12px">20</text>
<text x="46" y="703.0" class="t" style="font-size:13px;font-weight:400">Gemini 3.5 Flash</text>
<text x="300" y="703.0" class="ts" text-anchor="middle" style="font-size:11px">API</text>
<g class="c-teal"><rect x="320" y="689.0" width="42" height="20" rx="5"/><text x="341" y="703.0" text-anchor="middle" style="font-size:12px">0.63</text></g>
<text x="392" y="703.0" class="ts" text-anchor="middle" style="font-size:12px">0.63</text>
<text x="430" y="703.0" class="t" style="font-size:12px">关不掉推理</text>
<text x="34" y="733.0" class="ts" text-anchor="end" style="font-size:12px">21</text>
<text x="46" y="733.0" class="t" style="font-size:13px;font-weight:400">MiniMax M2.7</text>
<text x="300" y="733.0" class="ts" text-anchor="middle" style="font-size:11px">API</text>
<g class="c-teal"><rect x="320" y="719.0" width="42" height="20" rx="5"/><text x="341" y="733.0" text-anchor="middle" style="font-size:12px">0.57</text></g>
<text x="392" y="733.0" class="ts" text-anchor="middle" style="font-size:12px">0.57</text>
<text x="430" y="733.0" class="t" style="font-size:12px">思维链成片枚举</text>
<text x="34" y="763.0" class="ts" text-anchor="end" style="font-size:12px">22</text>
<text x="46" y="763.0" class="t" style="font-size:13px;font-weight:400">mimo(web)</text>
<text x="300" y="763.0" class="ts" text-anchor="middle" style="font-size:11px">网页</text>
<g class="c-amber"><rect x="320" y="749.0" width="42" height="20" rx="5"/><text x="341" y="763.0" text-anchor="middle" style="font-size:12px">0.46</text></g>
<text x="392" y="763.0" class="ts" text-anchor="middle" style="font-size:12px">0.46</text>
<text x="430" y="763.0" class="t" style="font-size:12px">开了超长思考</text>
<text x="34" y="793.0" class="ts" text-anchor="end" style="font-size:12px">23</text>
<text x="46" y="793.0" class="t" style="font-size:13px;font-weight:400">GPT-5.4</text>
<text x="300" y="793.0" class="ts" text-anchor="middle" style="font-size:11px">API</text>
<g class="c-amber"><rect x="320" y="779.0" width="42" height="20" rx="5"/><text x="341" y="793.0" text-anchor="middle" style="font-size:12px">0.42</text></g>
<text x="392" y="793.0" class="ts" text-anchor="middle" style="font-size:12px">0.25</text>
<text x="430" y="793.0" class="t" style="font-size:12px">没题感 2/9</text>
<text x="34" y="823.0" class="ts" text-anchor="end" style="font-size:12px">24</text>
<text x="46" y="823.0" class="t" style="font-size:13px;font-weight:400">DeepSeek(web)</text>
<text x="300" y="823.0" class="ts" text-anchor="middle" style="font-size:11px">网页</text>
<g class="c-amber"><rect x="320" y="809.0" width="42" height="20" rx="5"/><text x="341" y="823.0" text-anchor="middle" style="font-size:12px">0.40</text></g>
<text x="392" y="823.0" class="ts" text-anchor="middle" style="font-size:12px">0.40</text>
<text x="430" y="823.0" class="t" style="font-size:12px">超长思考 + 试数</text>
<text x="34" y="853.0" class="ts" text-anchor="end" style="font-size:12px">25</text>
<text x="46" y="853.0" class="t" style="font-size:13px;font-weight:400">混元 hy3</text>
<text x="300" y="853.0" class="ts" text-anchor="middle" style="font-size:11px">API</text>
<g class="c-amber"><rect x="320" y="839.0" width="42" height="20" rx="5"/><text x="341" y="853.0" text-anchor="middle" style="font-size:12px">0.25</text></g>
<text x="392" y="853.0" class="ts" text-anchor="middle" style="font-size:12px">0.25</text>
<text x="430" y="853.0" class="t" style="font-size:12px">读反题;开推理翻车</text>
<text x="34" y="883.0" class="ts" text-anchor="end" style="font-size:12px">26</text>
<text x="46" y="883.0" class="t" style="font-size:13px;font-weight:400">Claude Haiku 4.5</text>
<text x="300" y="883.0" class="ts" text-anchor="middle" style="font-size:11px">API</text>
<g class="c-amber"><rect x="320" y="869.0" width="42" height="20" rx="5"/><text x="341" y="883.0" text-anchor="middle" style="font-size:12px">0.25</text></g>
<text x="392" y="883.0" class="ts" text-anchor="middle" style="font-size:12px">0.25</text>
<text x="430" y="883.0" class="t" style="font-size:12px">假装跑代码报 990</text>
<text x="34" y="913.0" class="ts" text-anchor="end" style="font-size:12px">27</text>
<text x="46" y="913.0" class="t" style="font-size:13px;font-weight:400">豆包(web)</text>
<text x="300" y="913.0" class="ts" text-anchor="middle" style="font-size:11px">网页</text>
<g class="c-amber"><rect x="320" y="899.0" width="42" height="20" rx="5"/><text x="341" y="913.0" text-anchor="middle" style="font-size:12px">0.25</text></g>
<text x="392" y="913.0" class="ts" text-anchor="middle" style="font-size:12px">0.25</text>
<text x="430" y="913.0" class="t" style="font-size:12px">逻辑说反,不给数</text>
<text x="34" y="943.0" class="ts" text-anchor="end" style="font-size:12px">28</text>
<text x="46" y="943.0" class="t" style="font-size:13px;font-weight:400">Grok(web)</text>
<text x="300" y="943.0" class="ts" text-anchor="middle" style="font-size:11px">网页</text>
<g class="c-amber"><rect x="320" y="929.0" width="42" height="20" rx="5"/><text x="341" y="943.0" text-anchor="middle" style="font-size:12px">0.25</text></g>
<text x="392" y="943.0" class="ts" text-anchor="middle" style="font-size:12px">0.25</text>
<text x="430" y="943.0" class="t" style="font-size:12px">不算,只敢估</text>
<text x="34" y="973.0" class="ts" text-anchor="end" style="font-size:12px">29</text>
<text x="46" y="973.0" class="t" style="font-size:13px;font-weight:400">千问(web)</text>
<text x="300" y="973.0" class="ts" text-anchor="middle" style="font-size:11px">网页</text>
<g class="c-amber"><rect x="320" y="959.0" width="42" height="20" rx="5"/><text x="341" y="973.0" text-anchor="middle" style="font-size:12px">0.25</text></g>
<text x="392" y="973.0" class="ts" text-anchor="middle" style="font-size:12px">0.25</text>
<text x="430" y="973.0" class="t" style="font-size:12px">→ 14</text>
<text x="34" y="1003.0" class="ts" text-anchor="end" style="font-size:12px">30</text>
<text x="46" y="1003.0" class="t" style="font-size:13px;font-weight:400">GPT-5.4(web)</text>
<text x="300" y="1003.0" class="ts" text-anchor="middle" style="font-size:11px">网页</text>
<g class="c-coral"><rect x="320" y="989.0" width="42" height="20" rx="5"/><text x="341" y="1003.0" text-anchor="middle" style="font-size:12px">0.15</text></g>
<text x="392" y="1003.0" class="ts" text-anchor="middle" style="font-size:12px">0.15</text>
<text x="430" y="1003.0" class="t" style="font-size:12px">读反题 → 336</text>
<text x="34" y="1033.0" class="ts" text-anchor="end" style="font-size:12px">31</text>
<text x="46" y="1033.0" class="t" style="font-size:13px;font-weight:400">混元3(web)</text>
<text x="300" y="1033.0" class="ts" text-anchor="middle" style="font-size:11px">网页</text>
<g class="c-coral"><rect x="320" y="1019.0" width="42" height="20" rx="5"/><text x="341" y="1033.0" text-anchor="middle" style="font-size:12px">0.15</text></g>
<text x="392" y="1033.0" class="ts" text-anchor="middle" style="font-size:12px">0.15</text>
<text x="430" y="1033.0" class="t" style="font-size:12px">→ 23</text>
<text x="34" y="1063.0" class="ts" text-anchor="end" style="font-size:12px">32</text>
<text x="46" y="1063.0" class="t" style="font-size:13px;font-weight:400">GLM智谱新站(web)</text>
<text x="300" y="1063.0" class="ts" text-anchor="middle" style="font-size:11px">网页</text>
<g class="c-coral"><rect x="320" y="1049.0" width="42" height="20" rx="5"/><text x="341" y="1063.0" text-anchor="middle" style="font-size:12px">0.15</text></g>
<text x="392" y="1063.0" class="ts" text-anchor="middle" style="font-size:12px">0.15</text>
<text x="430" y="1063.0" class="t" style="font-size:12px">想通了却改成 999</text>
<text x="34" y="1093.0" class="ts" text-anchor="end" style="font-size:12px">33</text>
<text x="46" y="1093.0" class="t" style="font-size:13px;font-weight:400">GLM5.1(web)</text>
<text x="300" y="1093.0" class="ts" text-anchor="middle" style="font-size:11px">网页</text>
<g class="c-coral"><rect x="320" y="1079.0" width="42" height="20" rx="5"/><text x="341" y="1093.0" text-anchor="middle" style="font-size:12px">0.00</text></g>
<text x="392" y="1093.0" class="ts" text-anchor="middle" style="font-size:12px">0.00</text>
<text x="430" y="1093.0" class="t" style="font-size:12px">手画反推树 → 39</text>
<text x="34" y="1123.0" class="ts" text-anchor="end" style="font-size:12px">34</text>
<text x="46" y="1123.0" class="t" style="font-size:13px;font-weight:400">GLM 5.1</text>
<text x="300" y="1123.0" class="ts" text-anchor="middle" style="font-size:11px">API</text>
<g class="c-red"><rect x="320" y="1109.0" width="42" height="20" rx="5"/><text x="341" y="1123.0" text-anchor="middle" style="font-size:12px">-0.10</text></g>
<text x="392" y="1123.0" class="ts" text-anchor="middle" style="font-size:12px">-0.10</text>
<text x="430" y="1123.0" class="t" style="font-size:12px">自创理论硬算 → 668</text>
<text x="34" y="1153.0" class="ts" text-anchor="end" style="font-size:12px">35</text>
<text x="46" y="1153.0" class="t" style="font-size:13px;font-weight:400">GLM智谱清言(web)</text>
<text x="300" y="1153.0" class="ts" text-anchor="middle" style="font-size:11px">网页</text>
<g class="c-red"><rect x="320" y="1139.0" width="42" height="20" rx="5"/><text x="341" y="1153.0" text-anchor="middle" style="font-size:12px">-0.60</text></g>
<text x="392" y="1153.0" class="ts" text-anchor="middle" style="font-size:12px">-0.60</text>
<text x="430" y="1153.0" class="t" style="font-size:12px">读反题 · 手算 4000 行 → 28</text>
<text x="24" y="1192" class="ts" style="font-size:12px">github.com/mayunlong1994/idiot</text></svg>